# xmcd
#
# Track frame offsets:
#	150
#	17010
#	37896
#	59491
#	77708
#	99951
#	121061
#	138460
#	156473
#	176522
#	193935
#	212885
#	234111
#	253603
#	273764
#	294648
#	310319
#	329570
#
# Disc length: 4634 seconds
#
# Revision: 1
# Processed by: cddbd v1.5.2PL0 Copyright (c) Steve Scherf et al.
# Submitted via: audiograbber 1.83.01
#
DISCID=fe121812
DTITLE=Various Artist - RB0057 - Top Hits Urban 057 01-2007
DYEAR=2007
DGENRE=Hip-Hop
TTITLE0=Rich Boy Ft Polow Da Don - Throw Some D'
TTITLE1=Lil Scrappy Ft Sean Paul And E-40 - Oh Yeah
TTITLE2=T.I. - Top Back
TTITLE3=Fat Joe ft Lil Wayne - Make It Rain
TTITLE4=Ciara ft Busta Rhymes - Promise
TTITLE5=Lil Boosie ft Yung Joc - Zoom
TTITLE6=NAS ft Will.i.am - Hip-Hop Is Dead 
TTITLE7=Jibbs Ft Real G and Chamillionaire - King Kong
TTITLE8=Trick Daddy ft Baby - Tuck Ya Ice
TTITLE9=Crime Mob ft Lil Scrappy - Rock Yo Hips (!)
TTITLE10=Play N Skillz ft Mannie Fresh - Who Da Sh (!) 
TTITLE11=Lil Jon ft Three 6 Mafia - Act A Fool (!)
TTITLE12=Mims - This Is Why I'm Hot
TTITLE13=Chris Brown - Poppin' 
TTITLE14=Beyonce ft Jay-Z - Upgrade U
TTITLE15=Ice Cube - Holla At Cha Boy 
TTITLE16=Musiq ft Fat Joe, Jadakiss And Ja Rule - Buddy
TTITLE17=Musiq ft Marques Houston And Trey Songz - 1st Time (!)
EXTD=
EXTT0=
EXTT1=
EXTT2=
EXTT3=
EXTT4=
EXTT5=
EXTT6=
EXTT7=
EXTT8=
EXTT9=
EXTT10=
EXTT11=
EXTT12=
EXTT13=
EXTT14=
EXTT15=
EXTT16=
EXTT17=
PLAYORDER=
